<?xml version="1.0" encoding="UTF-8"?>
<svg viewBox="0 0 800 600" xmlns="http://www.w3.org/2000/svg">
  <!-- Background and Title -->
  <rect x="0" y="0" width="800" height="600" fill="#f5f5f5" />
  <text x="400" y="40" font-family="Arial" font-size="24" text-anchor="middle" font-weight="bold">Patient Monitoring System - PostgreSQL Network Architecture</text>
  
  <!-- Kubernetes Cluster Box -->
  <rect x="50" y="70" width="700" height="480" rx="10" ry="10" fill="#e6f7ff" stroke="#0078d7" stroke-width="2" opacity="0.7" />
  <text x="400" y="90" font-family="Arial" font-size="18" text-anchor="middle" font-weight="bold">Kubernetes Cluster</text>
  
  <!-- Production Namespace -->
  <rect x="75" y="110" width="320" height="420" rx="8" ry="8" fill="#eff8e8" stroke="#4caf50" stroke-width="2" opacity="0.8" />
  <text x="235" y="130" font-family="Arial" font-size="16" text-anchor="middle" font-weight="bold">Production Namespace</text>
  
  <!-- Development Namespace -->
  <rect x="405" y="110" width="320" height="420" rx="8" ry="8" fill="#fff4e3" stroke="#ff9800" stroke-width="2" opacity="0.8" />
  <text x="565" y="130" font-family="Arial" font-size="16" text-anchor="middle" font-weight="bold">Development Namespace</text>
  
  <!-- Production PostgreSQL Deployment -->
  <rect x="100" y="150" width="270" height="150" rx="5" ry="5" fill="#ffffff" stroke="#4caf50" stroke-width="2" />
  <text x="235" y="170" font-family="Arial" font-size="14" text-anchor="middle" font-weight="bold">PostgreSQL Deployment (Production)</text>
  
  <!-- Production PostgreSQL Pods -->
  <g>
    <rect x="115" y="190" width="70" height="90" rx="5" ry="5" fill="#bde9b5" stroke="#2e7d32" stroke-width="1" />
    <text x="150" y="220" font-family="Arial" font-size="12" text-anchor="middle">Postgres</text>
    <text x="150" y="235" font-family="Arial" font-size="12" text-anchor="middle">Pod 1</text>
    <circle cx="150" cy="265" r="8" fill="#2e7d32" />
  </g>
  <g>
    <rect x="195" y="190" width="70" height="90" rx="5" ry="5" fill="#bde9b5" stroke="#2e7d32" stroke-width="1" />
    <text x="230" y="220" font-family="Arial" font-size="12" text-anchor="middle">Postgres</text>
    <text x="230" y="235" font-family="Arial" font-size="12" text-anchor="middle">Pod 2</text>
    <circle cx="230" cy="265" r="8" fill="#2e7d32" />
  </g>
  <g>
    <rect x="275" y="190" width="70" height="90" rx="5" ry="5" fill="#bde9b5" stroke="#2e7d32" stroke-width="1" />
    <text x="310" y="220" font-family="Arial" font-size="12" text-anchor="middle">Postgres</text>
    <text x="310" y="235" font-family="Arial" font-size="12" text-anchor="middle">Pod 3</text>
    <circle cx="310" cy="265" r="8" fill="#2e7d32" />
  </g>
  
  <!-- Production Services -->
  <rect x="100" y="320" width="270" height="70" rx="5" ry="5" fill="#ffffff" stroke="#4caf50" stroke-width="2" />
  <text x="235" y="340" font-family="Arial" font-size="14" text-anchor="middle" font-weight="bold">Services</text>
  <rect x="130" y="350" width="210" height="30" rx="15" ry="15" fill="#c8e6c9" stroke="#2e7d32" stroke-width="1" />
  <text x="235" y="370" font-family="Arial" font-size="12" text-anchor="middle">postgres.prod-patient-monitoring.svc (5432)</text>
  
  <!-- Production Network Policies -->
  <rect x="100" y="410" width="270" height="100" rx="5" ry="5" fill="#ffffff" stroke="#4caf50" stroke-width="2" />
  <text x="235" y="430" font-family="Arial" font-size="14" text-anchor="middle" font-weight="bold">Network Policies</text>
  <rect x="120" y="450" width="230" height="50" rx="5" ry="5" fill="#c8e6c9" stroke="#2e7d32" stroke-width="1" />
  <text x="235" y="475" font-family="Arial" font-size="12" text-anchor="middle">Allow only patient-monitoring apps</text>
  <text x="235" y="490" font-family="Arial" font-size="10" text-anchor="middle">Restrict egress to DNS only</text>
  
  <!-- Development PostgreSQL Deployment -->
  <rect x="430" y="150" width="270" height="150" rx="5" ry="5" fill="#ffffff" stroke="#ff9800" stroke-width="2" />
  <text x="565" y="170" font-family="Arial" font-size="14" text-anchor="middle" font-weight="bold">PostgreSQL Deployment (Development)</text>
  
  <!-- Development PostgreSQL Pod -->
  <g>
    <rect x="530" y="190" width="70" height="90" rx="5" ry="5" fill="#ffe0b2" stroke="#e65100" stroke-width="1" />
    <text x="565" y="220" font-family="Arial" font-size="12" text-anchor="middle">Postgres</text>
    <text x="565" y="235" font-family="Arial" font-size="12" text-anchor="middle">Pod</text>
    <circle cx="565" cy="265" r="8" fill="#e65100" />
  </g>
  
  <!-- Development Services -->
  <rect x="430" y="320" width="270" height="70" rx="5" ry="5" fill="#ffffff" stroke="#ff9800" stroke-width="2" />
  <text x="565" y="340" font-family="Arial" font-size="14" text-anchor="middle" font-weight="bold">Services</text>
  <rect x="460" y="350" width="210" height="30" rx="15" ry="15" fill="#ffe0b2" stroke="#e65100" stroke-width="1" />
  <text x="565" y="370" font-family="Arial" font-size="12" text-anchor="middle">postgres.dev-patient-monitoring.svc (5432)</text>
  
  <!-- Development Network Policies -->
  <rect x="430" y="410" width="270" height="100" rx="5" ry="5" fill="#ffffff" stroke="#ff9800" stroke-width="2" />
  <text x="565" y="430" font-family="Arial" font-size="14" text-anchor="middle" font-weight="bold">Network Policies</text>
  <rect x="450" y="450" width="230" height="50" rx="5" ry="5" fill="#ffe0b2" stroke="#e65100" stroke-width="1" />
  <text x="565" y="475" font-family="Arial" font-size="12" text-anchor="middle">Allow only patient-monitoring apps</text>
  <text x="565" y="490" font-family="Arial" font-size="10" text-anchor="middle">Restrict egress to DNS only</text>
  
  <!-- External Access -->
  <rect x="300" y="20" width="200" height="30" rx="5" ry="5" fill="#ffffff" stroke="#0078d7" stroke-width="1" />
  <text x="400" y="40" font-family="Arial" font-size="12" text-anchor="middle">API Gateway / Ingress Controller</text>
  
  <!-- Patient Monitoring Application -->
  <rect x="100" y="560" width="160" height="30" rx="5" ry="5" fill="#ffffff" stroke="#4caf50" stroke-width="1" />
  <text x="180" y="580" font-family="Arial" font-size="12" text-anchor="middle">Patient Monitoring App (Prod)</text>
  
  <rect x="430" y="560" width="160" height="30" rx="5" ry="5" fill="#ffffff" stroke="#ff9800" stroke-width="1" />
  <text x="510" y="580" font-family="Arial" font-size="12" text-anchor="middle">Patient Monitoring App (Dev)</text>
  
  <!-- Arrows -->
  <!-- API Gateway to Services -->
  <line x1="400" y1="50" x2="235" y2="350" stroke="#0078d7" stroke-width="2" stroke-dasharray="5,3" />
  <polygon points="235,350 230,340 240,340" fill="#0078d7" />
  
  <line x1="400" y1="50" x2="565" y2="350" stroke="#0078d7" stroke-width="2" stroke-dasharray="5,3" />
  <polygon points="565,350 560,340 570,340" fill="#0078d7" />
  
  <!-- App to Services -->
  <line x1="180" y1="560" x2="235" y2="380" stroke="#4caf50" stroke-width="2" />
  <polygon points="235,380 230,390 240,390" fill="#4caf50" />
  
  <line x1="510" y1="560" x2="565" y2="380" stroke="#ff9800" stroke-width="2" />
  <polygon points="565,380 560,390 570,390" fill="#ff9800" />
  
  <!-- Services to Pods -->
  <line x1="235" y1="350" x2="150" y2="280" stroke="#4caf50" stroke-width="2" />
  <polygon points="150,280 145,290 155,290" fill="#4caf50" />
  
  <line x1="235" y1="350" x2="230" y2="280" stroke="#4caf50" stroke-width="2" />
  <polygon points="230,280 225,290 235,290" fill="#4caf50" />
  
  <line x1="235" y1="350" x2="310" y2="280" stroke="#4caf50" stroke-width="2" />
  <polygon points="310,280 305,290 315,290" fill="#4caf50" />
  
  <line x1="565" y1="350" x2="565" y2="280" stroke="#ff9800" stroke-width="2" />
  <polygon points="565,280 560,290 570,290" fill="#ff9800" />
  
  <!-- Network Policy Effects -->
  <line x1="235" y1="450" x2="235" y2="390" stroke="#4caf50" stroke-width="2" stroke-dasharray="3,3" />
  <circle cx="235" cy="420" r="5" fill="#4caf50" />
  
  <line x1="565" y1="450" x2="565" y2="390" stroke="#ff9800" stroke-width="2" stroke-dasharray="3,3" />
  <circle cx="565" cy="420" r="5" fill="#ff9800" />
  
  <!-- Legend -->
  <rect x="620" y="20" width="150" height="80" rx="5" ry="5" fill="white" stroke="#333333" stroke-width="1" />
  <text x="695" y="35" font-family="Arial" font-size="12" text-anchor="middle" font-weight="bold">Legend</text>
  
  <rect x="630" y="45" width="15" height="15" fill="#bde9b5" stroke="#2e7d32" stroke-width="1" />
  <text x="655" y="58" font-family="Arial" font-size="10" text-anchor="start">Production Resources</text>
  
  <rect x="630" y="65" width="15" height="15" fill="#ffe0b2" stroke="#e65100" stroke-width="1" />
  <text x="655" y="78" font-family="Arial" font-size="10" text-anchor="start">Development Resources</text>
  
  <line x1="630" y1="85" x2="645" y2="85" stroke="#0078d7" stroke-width="2" stroke-dasharray="5,3" />
  <text x="655" y="88" font-family="Arial" font-size="10" text-anchor="start">External Access</text>
</svg>